<svg width="64" height="52" viewBox="0 0 64 52" fill="none" xmlns="http://www.w3.org/2000/svg">
<path d="M44 51.5H31C30.6022 51.5 30.2206 51.342 29.9393 51.0607C29.658 50.7794 29.5 50.3978 29.5 50C29.5 49.6022 29.658 49.2206 29.9393 48.9393C30.2206 48.658 30.6022 48.5 31 48.5H44C48.3761 48.5 52.5729 46.7616 55.6673 43.6673C58.7616 40.5729 60.5 36.3761 60.5 32C60.5 27.6239 58.7616 23.4271 55.6673 20.3327C52.5729 17.2384 48.3761 15.5 44 15.5H2C1.60218 15.5 1.22065 15.342 0.939341 15.0607C0.658036 14.7794 0.5 14.3978 0.5 14C0.5 13.6022 0.658036 13.2206 0.939341 12.9393C1.22065 12.658 1.60218 12.5 2 12.5H44C49.1717 12.5 54.1316 14.5545 57.7886 18.2114C61.4455 21.8684 63.5 26.8283 63.5 32C63.5 37.1717 61.4455 42.1316 57.7886 45.7886C54.1316 49.4455 49.1717 51.5 44 51.5Z" fill="black"/>
<path d="M14 27.5C13.6023 27.4997 13.221 27.3414 12.94 27.06L0.940001 15.06C0.6591 14.7788 0.50132 14.3975 0.50132 14C0.50132 13.6025 0.6591 13.2213 0.940001 12.94L12.94 0.940003C13.0773 0.79263 13.2429 0.674424 13.4269 0.59244C13.6109 0.510456 13.8096 0.466372 14.011 0.462819C14.2124 0.459265 14.4124 0.496315 14.5992 0.571757C14.786 0.647199 14.9556 0.759489 15.0981 0.901927C15.2405 1.04436 15.3528 1.21403 15.4282 1.40081C15.5037 1.58758 15.5407 1.78764 15.5372 1.98905C15.5336 2.19045 15.4895 2.38908 15.4076 2.57308C15.3256 2.75708 15.2074 2.92268 15.06 3.06L4.12 14L15.06 24.94C15.2695 25.1498 15.4122 25.4169 15.4699 25.7077C15.5277 25.9985 15.498 26.2999 15.3846 26.5739C15.2712 26.8478 15.0791 27.0819 14.8327 27.2468C14.5862 27.4116 14.2965 27.4997 14 27.5Z" fill="black"/>
</svg>
