<svg width="82" height="58" viewBox="0 0 82 58" fill="none" xmlns="http://www.w3.org/2000/svg">
<path d="M7 0C3.13929 0 0 3.13929 0 7V51C0 54.8607 3.13929 58 7 58H75C78.8607 58 82 54.8607 82 51V7C82 3.13929 78.8607 0 75 0H7ZM7 2H75C76.2441 2 77.3493 2.45151 78.2188 3.1875L44.5312 32.4687C42.3699 34.3456 39.5651 34.3467 37.4062 32.4687L3.78125 3.1875C4.65074 2.45151 5.75589 2 7 2ZM2.53125 4.78125L36.0938 33.9687C38.936 36.4412 43.0002 36.4379 45.8438 33.9687L79.4688 4.78125C79.797 5.44976 80 6.1969 80 7V51C80 53.7873 77.7873 56 75 56H7C4.21269 56 2 53.7873 2 51V7C2 6.1969 2.20305 5.44976 2.53125 4.78125Z" fill="black"/>
</svg>
