<svg width="70" height="92" viewBox="0 0 70 92" fill="none" xmlns="http://www.w3.org/2000/svg">
<path d="M61.2339 39.934V27.157C61.2339 12.692 49.4639 0.923004 34.9999 0.923004C20.5359 0.923004 8.76591 12.693 8.76591 27.157V39.934C3.87141 40.8949 0.168213 45.2074 0.168213 50.383V80.422C0.168213 86.3009 4.94941 91.078 10.8242 91.078H59.1762C65.0512 91.078 69.8322 86.3007 69.8322 80.422V50.383C69.8322 45.2111 66.1285 40.8986 61.2339 39.934ZM34.9999 3.579C48.0039 3.579 58.5779 14.157 58.5779 27.157V39.727H52.1677V27.157C52.1677 17.6922 44.4646 9.989 34.9957 9.989C25.5268 9.989 17.8277 17.6882 17.8277 27.157V39.727H11.4215V27.157C11.4215 14.157 21.9959 3.579 34.9999 3.579ZM49.5159 39.727H20.4849V27.157C20.4849 19.1531 26.9966 12.641 35.0009 12.641C43.0052 12.641 49.5169 19.1527 49.5169 27.157L49.5159 39.727ZM67.1759 80.422C67.1759 84.8361 63.5861 88.4259 59.172 88.4259H10.824C6.40991 88.4259 2.82011 84.84 2.82011 80.422V50.383C2.82011 45.9689 6.40991 42.3791 10.824 42.3791H59.176C63.5901 42.3791 67.1799 45.965 67.1799 50.383V80.422H67.1759Z" fill="#737b89"/>
<path d="M44.883 61.195C44.883 58.113 43.4846 55.2653 41.0471 53.3747C38.6018 51.488 35.4455 50.8513 32.383 51.6481C29.0314 52.5153 26.3127 55.2458 25.4533 58.6051C24.4299 62.5817 25.797 66.5543 28.9533 68.9841L27.133 75.695C26.8869 76.6091 27.0705 77.5622 27.6447 78.3122C28.2189 79.0583 29.09 79.4919 30.0314 79.4919H39.9767C40.922 79.4919 41.7931 79.0622 42.3634 78.3122C42.9376 77.5622 43.1212 76.6091 42.8751 75.695L41.0548 68.9841C43.465 67.1169 44.883 64.2693 44.883 61.195ZM38.8205 67.3044C38.3283 67.6169 38.0939 68.2146 38.2463 68.781L40.3126 76.3982L39.9767 76.8435H30.0314L29.6955 76.3982L31.7619 68.781C31.9142 68.2146 31.6798 67.6169 31.1838 67.3044C28.4494 65.5935 27.211 62.4372 28.0235 59.2653C28.6485 56.8317 30.6252 54.8512 33.047 54.2223C33.6954 54.0543 34.3439 53.9723 34.9884 53.9723C36.5939 53.9723 38.1445 54.4879 39.418 55.4762C41.2032 56.8551 42.2267 58.9371 42.2267 61.195C42.2267 63.6794 40.9533 65.9684 38.8205 67.3044Z" fill="#737b89"/>
</svg>
